<?xml version="1.0" encoding="utf-8"?>
<!-- Generator: Adobe Illustrator 23.0.1, SVG Export Plug-In . SVG Version: 6.00 Build 0)  -->
<svg version="1.1" id="Livello_1" xmlns="http://www.w3.org/2000/svg" xmlns:xlink="http://www.w3.org/1999/xlink" x="0px" y="0px"
	 viewBox="0 0 536.97 301.9" style="enable-background:new 0 0 536.97 301.9;" xml:space="preserve">
<style type="text/css">
	.st0{fill:#312F73;}
	.st1{fill:#F20544;}
	.st2{fill:#3DD990;}
	.st3{fill:#8985F2;}
	.st4{fill:#164DF2;}
</style>
<g>
	<g>
		<path class="st0" d="M123.14,212.91v53.77h-9.99v-23.04H85.35v23.04h-9.99v-53.77h9.99v22.2h27.81v-22.2H123.14z"/>
		<path class="st0" d="M172.46,254.23h-26.88l-5.3,12.44h-10.29l24.2-53.77h9.83l24.27,53.77h-10.45L172.46,254.23z M169.16,246.4
			l-10.14-23.5l-10.06,23.5H169.16z"/>
		<path class="st0" d="M230.3,266.67l-10.98-15.75c-0.69,0.08-1.38,0.08-2.07,0.08h-12.14v15.67h-9.99v-53.77h22.12
			c14.13,0,22.89,7.22,22.89,19.13c0,8.14-4.15,14.13-11.44,16.98l12.37,17.67H230.3z M216.79,221.35h-11.68v21.43h11.68
			c8.76,0,13.29-3.99,13.29-10.75S225.54,221.35,216.79,221.35z"/>
		<path class="st0" d="M300.67,266.67l-0.08-35.64l-17.67,29.5h-4.46l-17.67-29.04v35.18h-9.53v-53.77h8.22l21.35,35.64l20.97-35.64
			h8.22l0.08,53.77H300.67z"/>
		<path class="st0" d="M320.8,239.79c0-15.9,12.29-27.65,28.96-27.65c16.67,0,28.96,11.68,28.96,27.65
			c0,15.98-12.29,27.65-28.96,27.65C333.09,267.44,320.8,255.69,320.8,239.79z M368.65,239.79c0-10.98-8.07-18.9-18.9-18.9
			c-10.83,0-18.9,7.91-18.9,18.9s8.07,18.9,18.9,18.9C360.59,258.69,368.65,250.77,368.65,239.79z"/>
		<path class="st0" d="M437.1,212.91v53.77h-8.22l-29.65-36.41v36.41h-9.91v-53.77h8.22l29.65,36.41v-36.41H437.1z"/>
		<path class="st0" d="M451.54,212.91h9.99v53.77h-9.99V212.91z"/>
	</g>
	<g>
		<path class="st1" d="M258.51,100.77c0.03-5.58,4.32-9.87,9.87-9.88c5.57-0.01,10.34,4.83,10.24,10.4c-0.1,5.51-4.52,9.86-10,9.85
			C262.91,111.14,258.48,106.59,258.51,100.77z"/>
		<g>
			<path class="st0" d="M344.23,101.53c0,3.49-2.65,6.21-6.1,6.27c-3.42,0.06-6.39-2.9-6.34-6.31c0.05-3.37,2.9-6.14,6.29-6.12
				C341.58,95.37,344.24,98.04,344.23,101.53z"/>
			<path class="st0" d="M232.62,155.65c3.38-0.01,6.3,2.83,6.31,6.13c0,3.32-2.86,6.21-6.21,6.27c-3.33,0.06-6.32-2.78-6.39-6.08
				C226.24,158.56,229.12,155.66,232.62,155.65z"/>
			<path class="st0" d="M238.3,40.48c-0.04,3.28-2.93,6.14-6.24,6.16c-3.28,0.02-6.19-2.9-6.19-6.21c0-3.4,2.92-6.22,6.4-6.21
				C235.7,34.25,238.34,36.99,238.3,40.48z"/>
			<path class="st0" d="M304.48,46.39c-3.52,0.03-6.46-2.8-6.42-6.18c0.04-3.33,2.93-6.16,6.29-6.17c3.39-0.01,6.22,2.75,6.29,6.14
				C310.71,43.49,307.87,46.36,304.48,46.39z"/>
			<path class="st0" d="M198.82,106.69c-3.47-0.02-6.1-2.71-6.09-6.21c0.02-3.42,2.81-6.22,6.18-6.18c3.51,0.04,6.33,2.9,6.26,6.36
				C205.12,103.97,202.24,106.71,198.82,106.69z"/>
			<path class="st0" d="M298.7,163.08c0.03-3.24,2.85-6.07,6.09-6.1c3.37-0.04,6.31,2.8,6.33,6.11c0.02,3.4-2.92,6.27-6.4,6.26
				C301.25,169.34,298.67,166.65,298.7,163.08z"/>
		</g>
		<path class="st1" d="M258.51,100.77c0.03-5.58,4.32-9.87,9.87-9.88c5.57-0.01,10.34,4.83,10.24,10.4c-0.1,5.51-4.52,9.86-10,9.85
			C262.91,111.14,258.48,106.59,258.51,100.77z"/>
		<path class="st2" d="M243.99,100.64c-0.06-13.63,10.32-24.22,23.9-24.37c13.61-0.15,25.38,11.58,25.25,25.18
			c-0.12,13.46-10.81,24.19-24.22,24.3C254.99,125.88,244.06,114.86,243.99,100.64z"/>
		<g>
			<path class="st3" d="M258.89,51.32c-0.13-2.55,0.92-4.83,2.86-6.77c1.32-1.32,2.73-2.58,3.88-4.04c3.57-4.52,3.6-8.97,0.24-13.66
				c-0.66-0.92-1.41-1.8-1.96-2.79c-1.56-2.78-0.91-6.08,1.47-7.9c2.49-1.9,6-1.7,8.28,0.48c2.29,2.19,2.52,5.53,0.55,8.2
				c-0.77,1.04-1.66,2.01-2.38,3.09c-2.94,4.46-2.8,8.59,0.48,12.84c1.09,1.41,2.36,2.68,3.58,3.98c3.25,3.47,3.71,7.97,1.22,12.12
				c-2.14,3.56-6.94,5.41-11.04,4.25C261.66,59.89,258.9,56.2,258.89,51.32z"/>
			<path class="st3" d="M268.24,139.16c3.97,0,7.45,2.21,8.87,5.65c1.58,3.8,0.76,7.83-2.14,10.74c-1.34,1.34-2.8,2.57-3.93,4.13
				c-3.19,4.39-3.23,8.54-0.09,12.95c0.64,0.9,1.37,1.76,1.93,2.71c1.57,2.67,1.01,5.87-1.29,7.72c-2.39,1.93-5.84,1.8-8.04-0.3
				c-2.3-2.2-2.61-5.4-0.73-7.98c0.47-0.64,1.03-1.21,1.51-1.84c4.13-5.43,3.87-10.07-0.72-15.15c-1.68-1.86-3.68-3.45-4.5-6.03
				C257.07,145.33,261.48,139.16,268.24,139.16z"/>
			<path class="st3" d="M235.65,76.78c-0.04,4.92-3.76,8.91-8.91,9.56c-4.26,0.54-8.94-2.66-10.11-7.05
				c-0.7-2.62-1.41-5.21-2.96-7.5c-2.13-3.15-5.21-4.27-8.84-4.18c-1.34,0.04-2.68,0.3-4.01,0.53c-2.98,0.5-5.75-1.14-6.72-4.02
				c-0.95-2.81,0.31-5.91,2.97-7.31c2.63-1.39,5.93-0.66,7.66,1.78c0.55,0.77,0.94,1.66,1.33,2.53c3.11,7.11,7.4,9.11,14.91,6.93
				c1.6-0.46,3.16-1.06,4.87-1.07C231.39,66.95,235.7,71.22,235.65,76.78z"/>
			<path class="st3" d="M309.18,115.8c4.22,0.02,7.63,2.51,8.84,6.63c0.73,2.49,1.38,4.99,2.86,7.19c2.16,3.2,5.27,4.22,8.93,4
				c1.21-0.08,2.42-0.34,3.62-0.5c2.86-0.37,5.51,1.37,6.3,4.15c0.8,2.83-0.6,5.73-3.37,6.98c-2.53,1.14-5.71,0.12-7.17-2.35
				c-0.43-0.72-0.77-1.49-1.1-2.26c-2.76-6.33-6.68-8.24-13.37-6.6c-1.84,0.45-3.59,1.24-5.56,1.22c-5.27-0.04-9.32-4.01-9.31-9.26
				C299.83,119.78,303.9,115.78,309.18,115.8z"/>
			<path class="st3" d="M235.99,125.16c-0.01,5.69-5.29,10.06-10.87,8.94c-1.77-0.36-3.5-0.94-5.27-1.29
				c-5.2-1.03-8.99,0.91-11.29,5.7c-0.49,1.02-0.83,2.12-1.37,3.1c-1.49,2.7-4.42,3.77-7.14,2.67c-2.45-0.99-3.84-3.71-3.22-6.29
				c0.66-2.69,3.23-4.48,6.16-4.26c1.28,0.1,2.55,0.28,3.83,0.35c4.57,0.24,7.66-1.94,9.37-6.05c0.78-1.87,1.15-3.9,1.77-5.84
				c1.45-4.52,5.77-7.1,10.47-6.28C232.61,116.66,235.99,120.79,235.99,125.16z"/>
			<path class="st3" d="M299.47,76.72c-0.06-5.94,5.51-10.51,11.33-9.26c2.5,0.54,4.9,1.44,7.51,1.53c4.24,0.14,7.1-1.85,9.03-5.42
				c0.66-1.23,1.08-2.58,1.75-3.81c1.52-2.8,4.55-3.94,7.32-2.85c2.58,1.01,4.02,3.73,3.4,6.42c-0.66,2.87-3.35,4.73-6.48,4.48
				c-0.08-0.01-0.16-0.01-0.23-0.02c-8.62-1.79-12.87,1.99-14.74,10.64c-1.58,7.31-9.45,10.22-15.19,5.8
				C301.04,82.6,299.5,79.45,299.47,76.72z"/>
		</g>
	</g>
</g>
</svg>
